<svg width="359" height="35" viewBox="0 0 359 35" fill="none" xmlns="http://www.w3.org/2000/svg">
<path d="M4 35V0H39V5H14V15H34V20H14V35H4Z" fill="white"/>
<path d="M44 35V0H74V5H79V20H69V25H74V30H79V35H64V30H59V25H54V35H44ZM54 20H64V15H69V5H54V20Z" fill="white"/>
<path d="M89 35V30H84V5H89V0H114V5H119V30H114V35H89ZM94 30H109V5H94V30Z" fill="white"/>
<path d="M124 35V0H134V5H139V10H144V15H149V0H159V35H149V25H144V20H139V15H134V35H124Z" fill="white"/>
<path d="M179 35V5H169V0H199V5H189V35H179Z" fill="white"/>
<path d="M219 35V5H209V0H239V5H229V35H219Z" fill="white"/>
<path d="M244 35V0H279V5H254V15H274V20H254V30H279V35H244Z" fill="white"/>
<path d="M284 35V10H289V5H294V0H309V5H314V10H319V35H309V25H294V35H284ZM294 20H309V10H304V5H299V10H294V20Z" fill="white"/>
<path d="M324 35V0H334V5H339V10H344V5H349V0H359V35H349V15H344V25H339V15H334V35H324Z" fill="white"/>
<path d="M0 35V0H35V5H10V15H30V20H10V35H0Z" fill="#141414"/>
<path d="M40 35V0H70V5H75V20H65V25H70V30H75V35H60V30H55V25H50V35H40ZM50 20H60V15H65V5H50V20Z" fill="#141414"/>
<path d="M85 35V30H80V5H85V0H110V5H115V30H110V35H85ZM90 30H105V5H90V30Z" fill="#141414"/>
<path d="M120 35V0H130V5H135V10H140V15H145V0H155V35H145V25H140V20H135V15H130V35H120Z" fill="#141414"/>
<path d="M175 35V5H165V0H195V5H185V35H175Z" fill="#141414"/>
<path d="M215 35V5H205V0H235V5H225V35H215Z" fill="#141414"/>
<path d="M240 35V0H275V5H250V15H270V20H250V30H275V35H240Z" fill="#141414"/>
<path d="M280 35V10H285V5H290V0H305V5H310V10H315V35H305V25H290V35H280ZM290 20H305V10H300V5H295V10H290V20Z" fill="#141414"/>
<path d="M320 35V0H330V5H335V10H340V5H345V0H355V35H345V15H340V25H335V15H330V35H320Z" fill="#141414"/>
</svg>
